PathFileType	4	(X/Y/Z)	s10c0402.trc
DataRate	CameraRate	NumFrames	NumMarkers	Units	OrigDataRate	OrigDataStartFrame	OrigNumFrames
200	200	6	49	mm	200	500	2000
Frame#	Time	racr			lacr			c7			jug			rlel			rdr			llel			ldr			s2			lic			ric			lasi			rasi			rpsi			lpsi			rgt			lgt			rth1			rth2			rth3			rth4			rlfc			rmfc			rsh1			rsh2			rsh3			rsh4			rlmal			rmmal			rcal			rtoe			rmt5			lth1			lth2			lth4			lth3			llfc			lmfc			llmal			lcal			lmt5			lsh1			lsh2			lsh3			lsh4			ltoe			SBIKE			LBIKE			RBIKE			
		X1	Y1	Z1	X2	Y2	Z2	X3	Y3	Z3	X4	Y4	Z4	X5	Y5	Z5	X6	Y6	Z6	X7	Y7	Z7	X8	Y8	Z8	X9	Y9	Z9	X10	Y10	Z10	X11	Y11	Z11	X12	Y12	Z12	X13	Y13	Z13	X14	Y14	Z14	X15	Y15	Z15	X16	Y16	Z16	X17	Y17	Z17	X18	Y18	Z18	X19	Y19	Z19	X20	Y20	Z20	X21	Y21	Z21	X22	Y22	Z22	X23	Y23	Z23	X24	Y24	Z24	X25	Y25	Z25	X26	Y26	Z26	X27	Y27	Z27	X28	Y28	Z28	X29	Y29	Z29	X30	Y30	Z30	X31	Y31	Z31	X32	Y32	Z32	X33	Y33	Z33	X34	Y34	Z34	X35	Y35	Z35	X36	Y36	Z36	X37	Y37	Z37	X38	Y38	Z38	X39	Y39	Z39	X40	Y40	Z40	X41	Y41	Z41	X42	Y42	Z42	X43	Y43	Z43	X44	Y44	Z44	X45	Y45	Z45	X46	Y46	Z46	X47	Y47	Z47	X48	Y48	Z48	X49	Y49	Z49	
500	2.5000	688.718856	1322.583629	-13.796630	678.900653	1326.870825	-310.851968	645.128561	1377.071616	-159.513472	619.788855	1231.346102	-154.839982	543.779570	1089.401360	63.775226	623.001972	914.904908	-36.996705	545.885413	1113.093059	-453.444563	626.823943	911.475066	-426.686742	112.995876	1229.670024	-226.906463	291.125330	1204.932533	-357.150048	270.733440	1220.156974	-61.721767	288.691111	1117.282213	-321.865621	253.792419	1130.788991	-81.335873	155.797561	1280.078409	-168.866573	179.229157	1277.973658	-278.814013	151.001523	1135.109449	-30.588597	154.810418	1092.670934	-407.318961	232.881461	1010.586139	-9.143535	311.281042	970.056042	-20.734436	356.300967	897.627356	-25.129730	334.583946	998.602581	-28.292370	441.618840	813.800817	-46.363740	429.053704	809.218141	-164.914044	361.515574	730.540927	-19.603033	324.809424	650.883661	-35.988631	256.188929	599.162016	-38.455689	347.642126	637.505820	-63.827923	190.425402	518.377665	-57.208029	211.577512	535.361524	-138.301484	128.056091	499.256611	-101.616923	368.031367	461.032536	-102.279131	285.691806	439.658401	-38.155213	168.901757	960.149817	-420.699245	202.348479	881.726958	-404.461934	236.917072	888.195353	-394.070159	191.025265	794.222278	-395.192173	202.363567	681.694509	-375.692130	202.347855	671.873092	-263.101784	10.898384	348.098111	-385.144306	-40.758034	353.122374	-338.463880	48.648098	197.345209	-397.930131	116.602142	589.607348	-409.869294	107.115831	503.779673	-400.026675	53.914452	432.197108	-398.782843	136.034919	493.991128	-376.734702	126.235913	158.147299	-343.350545	-180.726838	823.177650	-210.229141	-103.995180	80.783755	-418.346371	-103.958388	80.507729	-18.245902	
501	2.5050	687.863115	1321.917652	-12.297775	679.656526	1326.319921	-309.327136	645.460642	1377.048650	-158.412944	619.419393	1231.551524	-154.008270	542.550088	1089.000104	64.610616	622.949173	915.171891	-37.144711	546.841814	1113.163282	-452.900450	626.989395	911.322359	-426.800315	113.151209	1230.898374	-223.870245	292.228915	1208.017462	-357.731911	271.729421	1221.121862	-61.174258	287.677612	1119.491413	-320.997607	254.510375	1131.223630	-79.637145	156.194574	1281.859630	-166.931397	179.045491	1280.408477	-276.716079	151.917603	1135.593445	-29.220095	154.358920	1095.419562	-405.955778	233.947828	1010.941380	-8.318581	312.014899	969.755347	-20.364637	356.474041	897.078083	-24.982918	335.456371	998.125994	-28.166457	440.790215	812.195331	-47.246182	427.118711	807.515878	-165.712233	361.822089	727.369972	-20.097318	325.950894	647.300964	-36.520631	257.991804	594.771367	-38.787269	348.780286	634.306929	-64.659688	193.121281	512.836555	-57.275527	214.169490	530.127950	-138.547008	130.998653	493.249956	-101.741466	371.269086	457.178095	-102.320430	289.157790	435.118309	-38.219347	170.497563	961.810579	-419.099653	205.439638	884.129106	-402.769527	239.811777	891.289756	-392.284340	196.620564	796.995825	-394.224003	206.955543	683.675418	-374.601670	207.587944	673.260190	-262.239860	9.861146	352.938922	-384.661202	-41.890082	358.434098	-338.057987	45.463167	201.676142	-397.634500	120.402050	592.173696	-408.877041	109.678276	506.481786	-398.722475	55.413260	435.598726	-398.189930	138.154337	496.343191	-375.082084	122.285361	161.107377	-343.218830	-180.669919	823.179745	-210.242052	-103.975639	80.779352	-418.365869	-103.935017	80.466571	-18.254555	
502	2.5100	686.915087	1321.138809	-10.783796	680.315763	1325.769549	-307.941371	645.766835	1376.944106	-157.094947	618.958096	1231.684879	-153.038410	540.757808	1088.692064	65.736448	622.708494	915.555179	-37.224699	547.674118	1113.229110	-452.509422	627.111037	911.216575	-426.860599	112.727806	1232.201905	-221.715444	289.332106	1209.184901	-354.961911	272.544175	1221.718556	-60.712099	286.926686	1121.624415	-320.519124	255.191809	1131.611508	-78.588710	156.798847	1283.211145	-164.811528	178.659542	1282.493517	-274.594602	152.836630	1135.828487	-27.830146	153.936329	1097.814045	-404.598491	235.169578	1011.095953	-7.336510	312.887720	969.262037	-19.857464	356.784834	896.242908	-24.763645	336.173178	997.247979	-28.631460	440.062333	810.327985	-48.057917	425.260011	805.629992	-166.271652	362.036353	724.255450	-20.446679	327.121413	643.878006	-36.992225	259.811983	590.428523	-38.980811	350.163600	631.060431	-65.243190	195.916994	507.374049	-57.450941	216.821353	524.954149	-138.862520	134.373582	487.165688	-102.373311	374.511389	453.124595	-102.302226	292.357604	430.562793	-38.297181	172.211641	963.356583	-417.560905	208.585927	886.339203	-400.992347	242.763135	894.132319	-390.443858	201.535482	799.007916	-392.697068	211.720970	685.525003	-373.599108	212.856924	674.791840	-261.295340	8.783330	357.706179	-384.189532	-43.095781	363.850660	-337.649109	42.326817	206.081432	-397.424574	124.422190	594.435404	-407.984567	112.288692	509.102193	-397.707684	56.919437	439.134021	-397.660575	140.261086	498.697985	-373.596556	118.544186	164.430175	-343.200259	-180.697638	823.193121	-210.239403	-103.986217	80.804318	-418.353224	-103.929499	80.470962	-18.250977	
503	2.5150	685.840982	1320.370145	-9.216752	680.895918	1325.193005	-306.570733	645.859177	1376.798534	-156.009545	618.536448	1231.731350	-152.249518	539.452823	1087.946203	66.457446	622.331123	915.977637	-37.423966	548.530194	1113.297823	-452.246410	627.169589	911.091767	-426.857672	111.752735	1233.275418	-220.410867	288.310549	1210.971380	-353.977057	273.193416	1222.147887	-60.137314	285.911066	1123.306800	-319.638623	255.876280	1131.899987	-77.589184	156.701886	1283.102115	-161.120206	178.042880	1284.344704	-272.462826	153.734022	1135.855669	-26.432106	153.473813	1099.824108	-403.133083	236.591853	1010.977528	-6.274436	313.842854	968.568699	-19.450350	357.165438	895.341573	-24.544024	337.198164	996.426977	-28.351375	439.363077	808.275502	-48.894393	423.412078	803.547467	-166.654714	362.033653	721.273471	-20.746656	328.151951	640.364891	-37.237646	261.605372	586.098266	-39.132074	351.270277	628.078635	-65.676808	198.511328	501.975980	-57.469370	219.307959	519.687141	-139.008334	137.228488	481.352723	-102.423102	377.689086	448.793952	-102.335571	295.544139	425.743549	-38.325440	174.024662	964.825177	-415.913071	211.715710	888.364685	-399.267408	245.705406	896.835356	-388.717793	205.618483	800.492810	-390.362238	216.713576	687.419543	-372.681605	217.867518	676.295406	-260.353227	7.791277	362.583564	-383.759119	-44.227683	369.350396	-337.293297	39.201910	210.531655	-397.220539	128.556201	596.706223	-407.258608	114.852344	511.634297	-396.687881	58.303262	442.645940	-397.159696	142.345215	500.854900	-372.245312	114.771243	167.765896	-343.034308	-180.667832	823.180098	-210.246171	-103.984671	80.800631	-418.348812	-103.945569	80.534680	-18.249476	
504	2.5200	684.671229	1319.324776	-7.488305	681.601064	1324.833860	-305.164851	645.947270	1376.713899	-154.992680	618.044301	1231.844104	-151.766137	537.725011	1087.126465	67.475422	621.886746	916.383883	-37.615967	549.202312	1113.368064	-452.154388	627.180640	911.016100	-426.890639	111.492788	1233.996688	-218.480428	287.335228	1212.622359	-353.145337	273.612193	1222.395454	-59.524887	285.142462	1124.857272	-319.049079	256.674926	1132.079931	-76.479897	156.661544	1283.571327	-159.107969	177.230152	1285.582744	-270.517553	154.678860	1135.584850	-25.042430	153.092348	1101.449322	-401.732099	237.953779	1010.660447	-5.112860	314.618132	967.690836	-19.239012	357.566457	894.126060	-24.314541	338.350514	995.510483	-27.833608	438.505393	806.266597	-49.559685	421.586568	801.401518	-166.887692	361.890491	718.314647	-21.020803	329.176562	636.970843	-37.372597	263.251922	581.833223	-39.255426	352.328756	624.880705	-65.903355	201.103480	496.396689	-57.385354	221.906001	514.320396	-139.079847	139.658172	475.857904	-101.891652	380.679152	444.294630	-102.523957	298.789192	420.748292	-38.331190	175.892011	966.157491	-414.261862	214.774914	890.291641	-397.604481	248.584752	899.277092	-387.051824	210.192769	802.367694	-388.988056	221.869102	689.167370	-371.892337	222.772262	677.906960	-259.482313	6.796879	367.592524	-383.257837	-45.402428	374.632033	-336.762422	36.286323	215.155912	-397.056945	132.781273	599.024943	-406.821813	117.165733	513.914300	-395.247765	59.406306	446.373157	-396.612095	144.285731	503.022302	-371.040347	111.283463	171.338664	-343.020415	-180.670008	823.163372	-210.304092	-103.977115	80.794029	-418.349590	-103.945620	80.512547	-18.258853	
505	2.5250	683.389244	1318.412654	-5.738702	681.998757	1324.507306	-303.911668	645.963756	1376.628031	-153.941904	617.363292	1231.981482	-151.102733	536.124702	1086.356780	68.418481	621.430361	916.685639	-37.825966	549.893301	1113.402144	-452.147488	627.191905	910.960255	-426.928177	111.085424	1234.359652	-216.635203	286.129503	1213.925903	-352.244544	273.923086	1222.475183	-58.985564	284.288869	1125.906117	-318.243222	257.507041	1132.168921	-75.412384	156.492859	1283.654270	-157.222079	176.239014	1286.424992	-268.508776	155.689340	1134.798217	-23.749941	152.707973	1102.744384	-400.277750	239.282050	1010.038697	-3.964388	315.406248	966.606541	-19.145335	357.965380	892.667605	-24.168411	339.481915	994.303734	-27.288062	437.468074	804.109150	-50.200179	419.733782	799.089732	-167.122182	361.671844	715.418611	-21.185812	330.106413	633.599176	-37.437407	264.817550	577.588261	-39.225997	353.341142	621.899209	-66.033565	203.669360	490.906422	-57.300503	224.351720	508.914962	-139.053962	142.876943	469.703285	-102.220850	383.595019	439.665882	-102.493792	301.788481	415.698852	-38.379276	177.716886	967.360058	-412.625307	217.763415	892.118595	-395.987871	251.389273	901.638043	-385.377739	214.560876	804.119006	-387.701528	227.152600	690.773047	-371.217345	227.660829	679.485632	-258.587158	5.937986	372.572620	-382.869300	-46.182531	380.307451	-336.876040	33.537898	219.803294	-396.790968	137.033889	601.437987	-406.872905	119.517106	516.645757	-394.691156	60.220221	450.313697	-396.139400	146.101679	505.283589	-370.193604	107.951226	175.022127	-343.018180	-180.668422	823.161979	-210.300898	-103.994155	80.789235	-418.350732	-103.926886	80.507947	-18.263581	
